<?xml version="1.0" encoding="UTF-8" ?>
<!DOCTYPE svg PUBLIC "-//W3C//DTD SVG 1.1//EN" "http://www.w3.org/Graphics/SVG/1.1/DTD/svg11.dtd">
<svg width="800pt" height="800pt" viewBox="0 0 800 800" version="1.1" xmlns="http://www.w3.org/2000/svg">
<g id="#000000fe">
<path fill="#c4c8cb" opacity="1.00" d=" M 66.67 376.06 C 272.83 273.80 479.18 171.91 685.42 69.80 C 695.12 89.95 704.86 110.08 714.58 130.21 C 685.05 144.77 655.54 159.36 626.04 173.98 C 647.29 209.75 664.40 248.06 676.07 288.02 C 688.57 330.73 694.63 375.48 692.13 419.97 C 688.08 492.86 663.08 563.51 626.04 626.02 C 655.54 640.63 685.05 655.23 714.58 669.79 C 704.88 689.91 695.12 710.02 685.45 730.16 C 549.67 663.12 413.98 595.85 278.23 528.73 C 207.73 493.77 137.10 459.05 66.67 423.94 C 66.68 407.98 66.68 392.02 66.67 376.06 M 421.85 274.99 C 431.15 288.15 439.53 301.99 446.46 316.55 C 461.79 348.20 469.74 383.98 465.56 419.14 C 461.22 457.68 444.06 493.64 421.85 525.01 C 469.77 548.62 517.70 572.19 565.59 595.86 C 595.26 546.46 617.14 491.56 624.01 434.08 C 629.03 393.16 624.42 351.46 613.14 311.94 C 602.33 274.04 585.92 237.85 565.59 204.14 C 517.70 227.81 469.77 251.38 421.85 274.99 M 167.72 400.00 C 231.59 431.62 295.48 463.19 359.36 494.79 C 343.57 465.07 332.84 431.91 333.40 397.97 C 333.68 365.41 344.21 333.75 359.36 305.21 C 295.48 336.81 231.59 368.38 167.72 400.00 Z" />
</g>
</svg>
