<?xml version="1.0" encoding="UTF-8" standalone="no"?>
<!DOCTYPE svg PUBLIC "-//W3C//DTD SVG 1.1//EN" "http://www.w3.org/Graphics/SVG/1.1/DTD/svg11.dtd">
<svg width="100%" height="100%" viewBox="0 0 1501 512" version="1.1" xmlns="http://www.w3.org/2000/svg" xmlns:xlink="http://www.w3.org/1999/xlink" xml:space="preserve" xmlns:serif="http://www.serif.com/" style="fill-rule:evenodd;clip-rule:evenodd;stroke-linecap:round;stroke-linejoin:round;stroke-miterlimit:1.5;">
    <g transform="matrix(1,0,0,1,-409.85,-881.128)">
        <path d="M1909.47,881.857L1909.47,1391.96L410.579,1391.96L410.579,881.857L1909.47,881.857ZM1568.82,1139.04C1568.82,1151.13 1570.73,1161.4 1574.56,1169.84C1578.38,1178.29 1583.4,1185.13 1589.62,1190.37C1595.84,1195.62 1602.82,1199.31 1610.56,1201.44C1618.29,1203.57 1625.98,1204.64 1633.62,1204.64C1641.44,1204.64 1649.18,1203.57 1656.82,1201.44C1664.47,1199.31 1671.4,1195.62 1677.62,1190.37C1683.84,1185.13 1688.87,1178.29 1692.69,1169.84C1696.51,1161.4 1698.42,1151.13 1698.42,1139.04C1698.42,1126.95 1696.51,1116.68 1692.69,1108.24C1688.87,1099.8 1683.84,1092.95 1677.62,1087.71C1671.4,1082.46 1664.47,1078.64 1656.82,1076.24C1649.18,1073.84 1641.44,1072.64 1633.62,1072.64C1625.98,1072.64 1618.29,1073.84 1610.56,1076.24C1602.82,1078.64 1595.84,1082.46 1589.62,1087.71C1583.4,1092.95 1578.38,1099.8 1574.56,1108.24C1570.73,1116.68 1568.82,1126.95 1568.82,1139.04ZM1592.29,1139.04C1592.29,1131.57 1592.96,1124.37 1594.29,1117.44C1595.62,1110.51 1597.89,1104.33 1601.09,1098.91C1604.29,1093.49 1608.56,1089.17 1613.89,1085.97C1619.22,1082.77 1625.8,1081.17 1633.62,1081.17C1641.44,1081.17 1648.02,1082.77 1653.36,1085.97C1658.69,1089.17 1662.96,1093.49 1666.16,1098.91C1669.36,1104.33 1671.62,1110.51 1672.96,1117.44C1674.29,1124.37 1674.96,1131.57 1674.96,1139.04C1674.96,1146.51 1674.29,1153.71 1672.96,1160.64C1671.62,1167.57 1669.36,1173.75 1666.16,1179.17C1662.96,1184.6 1658.69,1188.91 1653.36,1192.11C1648.02,1195.31 1641.44,1196.91 1633.62,1196.91C1625.8,1196.91 1619.22,1195.31 1613.89,1192.11C1608.56,1188.91 1604.29,1184.6 1601.09,1179.17C1597.89,1173.75 1595.62,1167.57 1594.29,1160.64C1592.96,1153.71 1592.29,1146.51 1592.29,1139.04ZM686.422,1127.04C686.422,1141.44 686.333,1155.22 686.156,1168.37C685.978,1181.53 685.356,1192.73 684.289,1201.97C688.378,1201.62 692.733,1201.44 697.356,1201.44C701.978,1201.44 706.333,1201.62 710.422,1201.97C710.067,1198.24 709.756,1193.31 709.489,1187.17C709.222,1181.04 709,1174.37 708.822,1167.17C708.644,1159.97 708.511,1152.64 708.422,1145.17C708.333,1137.71 708.289,1130.68 708.289,1124.11C711.133,1118.6 714.511,1112.42 718.422,1105.57C722.333,1098.73 726.867,1091.04 732.022,1082.51C737.178,1073.97 743.133,1064.46 749.889,1053.97C756.644,1043.49 764.289,1031.75 772.822,1018.77C768.378,1019.66 764.911,1020.11 762.422,1020.11C759.933,1020.11 756.467,1019.66 752.022,1018.77C748.467,1026.42 744.644,1034.29 740.556,1042.37C736.467,1050.46 732.2,1058.51 727.756,1066.51C723.311,1074.51 718.867,1082.33 714.422,1089.97C709.978,1097.62 705.711,1104.64 701.622,1111.04C692.378,1094.86 683.622,1079.31 675.356,1064.37C667.089,1049.44 658.956,1034.24 650.956,1018.77C648.467,1019.13 646.022,1019.44 643.622,1019.71C641.222,1019.97 638.778,1020.11 636.289,1020.11C633.8,1020.11 631.356,1019.97 628.956,1019.71C626.556,1019.44 624.111,1019.13 621.622,1018.77C623.4,1021.62 625.978,1025.84 629.356,1031.44C632.733,1037.04 636.511,1043.35 640.689,1050.37C644.867,1057.4 649.267,1064.77 653.889,1072.51C658.511,1080.24 662.911,1087.62 667.089,1094.64C671.267,1101.66 675.089,1108.06 678.556,1113.84C682.022,1119.62 684.644,1124.02 686.422,1127.04ZM753.622,1139.04C753.622,1151.13 755.533,1161.4 759.356,1169.84C763.178,1178.29 768.2,1185.13 774.422,1190.37C780.644,1195.62 787.622,1199.31 795.356,1201.44C803.089,1203.57 810.778,1204.64 818.422,1204.64C826.244,1204.64 833.978,1203.57 841.622,1201.44C849.267,1199.31 856.2,1195.62 862.422,1190.37C868.644,1185.13 873.667,1178.29 877.489,1169.84C881.311,1161.4 883.222,1151.13 883.222,1139.04C883.222,1126.95 881.311,1116.68 877.489,1108.24C873.667,1099.8 868.644,1092.95 862.422,1087.71C856.2,1082.46 849.267,1078.64 841.622,1076.24C833.978,1073.84 826.244,1072.64 818.422,1072.64C810.778,1072.64 803.089,1073.84 795.356,1076.24C787.622,1078.64 780.644,1082.46 774.422,1087.71C768.2,1092.95 763.178,1099.8 759.356,1108.24C755.533,1116.68 753.622,1126.95 753.622,1139.04ZM777.089,1139.04C777.089,1131.57 777.756,1124.37 779.089,1117.44C780.422,1110.51 782.689,1104.33 785.889,1098.91C789.089,1093.49 793.356,1089.17 798.689,1085.97C804.022,1082.77 810.6,1081.17 818.422,1081.17C826.244,1081.17 832.822,1082.77 838.156,1085.97C843.489,1089.17 847.756,1093.49 850.956,1098.91C854.156,1104.33 856.422,1110.51 857.756,1117.44C859.089,1124.37 859.756,1131.57 859.756,1139.04C859.756,1146.51 859.089,1153.71 857.756,1160.64C856.422,1167.57 854.156,1173.75 850.956,1179.17C847.756,1184.6 843.489,1188.91 838.156,1192.11C832.822,1195.31 826.244,1196.91 818.422,1196.91C810.6,1196.91 804.022,1195.31 798.689,1192.11C793.356,1188.91 789.089,1184.6 785.889,1179.17C782.689,1173.75 780.422,1167.57 779.089,1160.64C777.756,1153.71 777.089,1146.51 777.089,1139.04ZM1230.96,1077.71L1230.96,1125.97C1230.96,1132.02 1230.91,1138.6 1230.82,1145.71C1230.73,1152.82 1230.6,1159.84 1230.42,1166.77C1230.24,1173.71 1230.02,1180.29 1229.76,1186.51C1229.49,1192.73 1229.18,1197.88 1228.82,1201.97C1232.91,1201.62 1236.91,1201.44 1240.82,1201.44C1244.73,1201.44 1248.73,1201.62 1252.82,1201.97C1252.47,1197.88 1252.16,1192.73 1251.89,1186.51C1251.62,1180.29 1251.4,1173.71 1251.22,1166.77C1251.04,1159.84 1250.91,1152.82 1250.82,1145.71C1250.73,1138.6 1250.69,1132.02 1250.69,1125.97L1250.69,1077.71C1250.69,1071.66 1250.73,1065.09 1250.82,1057.97C1250.91,1050.86 1251.04,1043.84 1251.22,1036.91C1251.4,1029.97 1251.62,1023.35 1251.89,1017.04C1252.16,1010.73 1252.47,1005.35 1252.82,1000.91C1247.84,1001.8 1243.84,1002.24 1240.82,1002.24C1237.8,1002.24 1233.8,1001.8 1228.82,1000.91C1229.18,1005.35 1229.49,1010.73 1229.76,1017.04C1230.02,1023.35 1230.24,1029.97 1230.42,1036.91C1230.6,1043.84 1230.73,1050.86 1230.82,1057.97C1230.91,1065.09 1230.96,1071.66 1230.96,1077.71ZM1439.49,1116.11C1439.49,1125.88 1441.8,1134.02 1446.42,1140.51C1451.04,1147 1457.44,1152.02 1465.62,1155.57L1465.62,1156.11C1463.49,1156.46 1461.27,1157.26 1458.96,1158.51C1456.64,1159.75 1454.6,1161.35 1452.82,1163.31C1451.04,1165.26 1449.58,1167.49 1448.42,1169.97C1447.27,1172.46 1446.69,1175.22 1446.69,1178.24C1446.69,1183.4 1448.11,1187.84 1450.96,1191.57C1453.8,1195.31 1457.98,1197.97 1463.49,1199.57L1463.49,1200.11C1459.93,1201 1456.47,1202.33 1453.09,1204.11C1449.71,1205.88 1446.69,1208.29 1444.02,1211.31C1441.36,1214.33 1439.18,1217.8 1437.49,1221.71C1435.8,1225.62 1434.96,1229.88 1434.96,1234.51C1434.96,1246.42 1439.93,1255.8 1449.89,1262.64C1459.84,1269.49 1473.44,1272.91 1490.69,1272.91C1501.89,1272.91 1511.49,1271.22 1519.49,1267.84C1527.49,1264.46 1534.02,1260.2 1539.09,1255.04C1544.16,1249.88 1547.89,1244.11 1550.29,1237.71C1552.69,1231.31 1553.89,1225 1553.89,1218.77C1553.89,1214.15 1553.04,1209.88 1551.36,1205.97C1549.67,1202.06 1547,1198.6 1543.36,1195.57C1539.71,1192.55 1535,1190.15 1529.22,1188.37C1523.44,1186.6 1516.47,1185.62 1508.29,1185.44C1503.31,1185.26 1498.42,1185.13 1493.62,1185.04C1488.82,1184.95 1483.93,1184.82 1478.96,1184.64C1472.91,1184.46 1468.78,1183.31 1466.56,1181.17C1464.33,1179.04 1463.22,1175.66 1463.22,1171.04C1463.22,1167.49 1464.6,1164.55 1467.36,1162.24C1470.11,1159.93 1473.09,1158.77 1476.29,1158.77C1478.78,1158.77 1481.22,1158.86 1483.62,1159.04C1486.02,1159.22 1488.47,1159.31 1490.96,1159.31C1506.07,1159.31 1518.11,1155.53 1527.09,1147.97C1536.07,1140.42 1540.56,1129.97 1540.56,1116.64C1540.56,1109.88 1538.87,1103.35 1535.49,1097.04C1532.11,1090.73 1527.67,1086.06 1522.16,1083.04L1522.69,1082.51C1527.49,1082.68 1532.33,1083 1537.22,1083.44C1542.11,1083.88 1547.13,1084.29 1552.29,1084.64C1552.11,1083.75 1551.98,1082.82 1551.89,1081.84C1551.8,1080.86 1551.76,1079.93 1551.76,1079.04C1551.76,1078.15 1551.8,1077.22 1551.89,1076.24C1551.98,1075.26 1552.11,1074.33 1552.29,1073.44C1547.84,1074.33 1540.64,1074.77 1530.69,1074.77C1528.73,1074.77 1526.16,1074.68 1522.96,1074.51C1519.76,1074.33 1516.11,1074.06 1512.02,1073.71C1507.22,1073.35 1503.27,1073.09 1500.16,1072.91C1497.04,1072.73 1493.8,1072.64 1490.42,1072.64C1483.49,1072.64 1476.96,1073.53 1470.82,1075.31C1464.69,1077.09 1459.27,1079.75 1454.56,1083.31C1449.84,1086.86 1446.16,1091.35 1443.49,1096.77C1440.82,1102.2 1439.49,1108.64 1439.49,1116.11ZM1519.76,1114.77C1519.76,1119.75 1519.18,1124.51 1518.02,1129.04C1516.87,1133.57 1515.09,1137.57 1512.69,1141.04C1510.29,1144.51 1507.27,1147.26 1503.62,1149.31C1499.98,1151.35 1495.58,1152.37 1490.42,1152.37C1480.11,1152.37 1472.51,1149.13 1467.62,1142.64C1462.73,1136.15 1460.29,1127.31 1460.29,1116.11C1460.29,1105.26 1462.96,1096.6 1468.29,1090.11C1473.62,1083.62 1481.09,1080.37 1490.69,1080.37C1499.4,1080.37 1506.42,1083.31 1511.76,1089.17C1517.09,1095.04 1519.76,1103.57 1519.76,1114.77ZM1534.16,1230.24C1534.16,1236.29 1532.91,1241.49 1530.42,1245.84C1527.93,1250.2 1524.69,1253.8 1520.69,1256.64C1516.69,1259.49 1512.11,1261.62 1506.96,1263.04C1501.8,1264.46 1496.56,1265.17 1491.22,1265.17C1485.71,1265.17 1480.56,1264.55 1475.76,1263.31C1470.96,1262.06 1466.82,1260.11 1463.36,1257.44C1459.89,1254.77 1457.13,1251.31 1455.09,1247.04C1453.04,1242.77 1452.02,1237.62 1452.02,1231.57C1452.02,1220.2 1455.67,1212.33 1462.96,1207.97C1470.24,1203.62 1480.56,1201.44 1493.89,1201.44C1508.29,1201.44 1518.6,1203.57 1524.82,1207.84C1531.04,1212.11 1534.16,1219.57 1534.16,1230.24ZM912.822,1161.71C912.822,1175.57 916.778,1186.2 924.689,1193.57C932.6,1200.95 943.489,1204.64 957.356,1204.64C965.889,1204.64 973.8,1202.64 981.089,1198.64C988.378,1194.64 994.333,1188.37 998.956,1179.84L999.489,1179.84L999.489,1191.31C999.489,1193.26 999.444,1195.13 999.356,1196.91C999.267,1198.68 999.133,1200.37 998.956,1201.97C1002.51,1201.62 1005.98,1201.44 1009.36,1201.44C1012.73,1201.44 1016.2,1201.62 1019.76,1201.97C1019.4,1194.86 1019.13,1187.49 1018.96,1179.84C1018.78,1172.2 1018.69,1164.37 1018.69,1156.37C1018.69,1141.97 1018.78,1128.33 1018.96,1115.44C1019.13,1102.55 1019.67,1089.17 1020.56,1075.31C1018.78,1075.66 1017,1075.97 1015.22,1076.24C1013.44,1076.51 1011.58,1076.64 1009.62,1076.64C1007.67,1076.64 1005.8,1076.51 1004.02,1076.24C1002.24,1075.97 1000.38,1075.66 998.422,1075.31C998.6,1078.51 998.733,1081.88 998.822,1085.44C998.911,1089 998.956,1092.73 998.956,1096.64L998.956,1119.04C998.956,1129.53 998.911,1137.8 998.822,1143.84C998.733,1149.88 998.467,1154.68 998.022,1158.24C997.578,1161.8 997,1164.64 996.289,1166.77C995.578,1168.91 994.6,1171.49 993.356,1174.51C991.044,1179.31 987.4,1183.35 982.422,1186.64C977.444,1189.93 971.222,1191.57 963.756,1191.57C958.6,1191.57 954.111,1190.64 950.289,1188.77C946.467,1186.91 943.311,1184.55 940.822,1181.71C938.511,1179.22 936.556,1175.53 934.956,1170.64C933.356,1165.75 932.556,1158.68 932.556,1149.44C932.556,1136.11 932.778,1123.09 933.222,1110.37C933.667,1097.66 934.333,1085.97 935.222,1075.31C930.778,1076.2 927.133,1076.64 924.289,1076.64C921.267,1076.64 917.533,1076.2 913.089,1075.31C913.267,1082.77 913.4,1090.15 913.489,1097.44C913.578,1104.73 913.622,1111.49 913.622,1117.71C913.622,1124.29 913.489,1130.91 913.222,1137.57C912.956,1144.24 912.822,1152.29 912.822,1161.71ZM1287.22,1139.04C1287.22,1151.13 1289.13,1161.4 1292.96,1169.84C1296.78,1178.29 1301.8,1185.13 1308.02,1190.37C1314.24,1195.62 1321.22,1199.31 1328.96,1201.44C1336.69,1203.57 1344.38,1204.64 1352.02,1204.64C1359.84,1204.64 1367.58,1203.57 1375.22,1201.44C1382.87,1199.31 1389.8,1195.62 1396.02,1190.37C1402.24,1185.13 1407.27,1178.29 1411.09,1169.84C1414.91,1161.4 1416.82,1151.13 1416.82,1139.04C1416.82,1126.95 1414.91,1116.68 1411.09,1108.24C1407.27,1099.8 1402.24,1092.95 1396.02,1087.71C1389.8,1082.46 1382.87,1078.64 1375.22,1076.24C1367.58,1073.84 1359.84,1072.64 1352.02,1072.64C1344.38,1072.64 1336.69,1073.84 1328.96,1076.24C1321.22,1078.64 1314.24,1082.46 1308.02,1087.71C1301.8,1092.95 1296.78,1099.8 1292.96,1108.24C1289.13,1116.68 1287.22,1126.95 1287.22,1139.04ZM1310.69,1139.04C1310.69,1131.57 1311.36,1124.37 1312.69,1117.44C1314.02,1110.51 1316.29,1104.33 1319.49,1098.91C1322.69,1093.49 1326.96,1089.17 1332.29,1085.97C1337.62,1082.77 1344.2,1081.17 1352.02,1081.17C1359.84,1081.17 1366.42,1082.77 1371.76,1085.97C1377.09,1089.17 1381.36,1093.49 1384.56,1098.91C1387.76,1104.33 1390.02,1110.51 1391.36,1117.44C1392.69,1124.37 1393.36,1131.57 1393.36,1139.04C1393.36,1146.51 1392.69,1153.71 1391.36,1160.64C1390.02,1167.57 1387.76,1173.75 1384.56,1179.17C1381.36,1184.6 1377.09,1188.91 1371.76,1192.11C1366.42,1195.31 1359.84,1196.91 1352.02,1196.91C1344.2,1196.91 1337.62,1195.31 1332.29,1192.11C1326.96,1188.91 1322.69,1184.6 1319.49,1179.17C1316.29,1173.75 1314.02,1167.57 1312.69,1160.64C1311.36,1153.71 1310.69,1146.51 1310.69,1139.04ZM1122.16,1097.17L1124.02,1095.84C1124.02,1092.29 1124.11,1088.33 1124.29,1083.97C1124.47,1079.62 1125,1076.37 1125.89,1074.24C1124.11,1073.53 1122.64,1073.09 1121.49,1072.91C1120.33,1072.73 1118.96,1072.64 1117.36,1072.64C1104.38,1072.64 1092.64,1082.24 1082.16,1101.44L1081.62,1101.17C1081.62,1097.8 1081.67,1094.24 1081.76,1090.51C1081.84,1086.77 1082.24,1081.71 1082.96,1075.31C1081,1075.66 1079.13,1075.97 1077.36,1076.24C1075.58,1076.51 1073.89,1076.64 1072.29,1076.64C1070.33,1076.64 1068.47,1076.51 1066.69,1076.24C1064.91,1075.97 1063.04,1075.66 1061.09,1075.31C1061.62,1087.04 1061.93,1097.44 1062.02,1106.51C1062.11,1115.57 1062.16,1123.57 1062.16,1130.51L1062.16,1139.04C1062.16,1154.15 1062.11,1166.91 1062.02,1177.31C1061.93,1187.71 1061.62,1195.93 1061.09,1201.97C1064.64,1201.62 1068.38,1201.44 1072.29,1201.44C1075.84,1201.44 1079.4,1201.62 1082.96,1201.97C1082.42,1198.06 1082.11,1192.95 1082.02,1186.64C1081.93,1180.33 1081.89,1171.22 1081.89,1159.31L1081.89,1129.97C1081.89,1124.82 1082.51,1119.97 1083.76,1115.44C1085,1110.91 1086.78,1107 1089.09,1103.71C1091.4,1100.42 1094.24,1097.8 1097.62,1095.84C1101,1093.88 1104.82,1092.91 1109.09,1092.91C1111.76,1092.91 1114.38,1093.35 1116.96,1094.24C1119.53,1095.13 1121.27,1096.11 1122.16,1097.17Z" style="fill:rgb(231,232,233);stroke:rgb(35,31,32);stroke-width:1.46px;"/>
    </g>
</svg>
